<svg width="17" height="11" viewBox="0 0 17 11" fill="none" xmlns="http://www.w3.org/2000/svg">
<path fill-rule="evenodd" clip-rule="evenodd" d="M15.293 9L15.293 2C15.293 1.44771 14.8453 1 14.293 1L2.70964 1C2.15735 1 1.70964 1.44772 1.70964 2L1.70964 9C1.70964 9.55229 2.15735 10 2.70963 10L14.293 10C14.8453 10 15.293 9.55228 15.293 9ZM16.293 2C16.293 0.895431 15.3975 0 14.293 0L2.70964 0C1.60507 0 0.709636 0.895431 0.709636 2L0.709636 9C0.709636 10.1046 1.60506 11 2.70963 11L14.293 11C15.3975 11 16.293 10.1046 16.293 9V2Z" fill="black"/>
<path fill-rule="evenodd" clip-rule="evenodd" d="M6.41148 5.08933L1.38086 1.40332L1.9719 0.59668L7.00251 4.28269C7.89021 4.93312 9.09883 4.92658 9.97944 4.26659L14.8718 0.5999L15.4715 1.4001L10.5792 5.06679C9.34632 5.99078 7.65425 5.99993 6.41148 5.08933Z" fill="black"/>
</svg>